<svg width="356" height="297" viewBox="0 0 356 297" fill="none" xmlns="http://www.w3.org/2000/svg">
<path d="M187.785 113.067V106.242H215.215V113.067H187.785ZM240.052 84.0775C243.583 84.0775 246.519 84.8358 248.859 86.3525C251.221 87.8692 252.987 89.9817 254.157 92.69C255.348 95.3983 255.944 98.5617 255.944 102.18C255.944 106.557 255.424 110.381 254.384 113.652C253.366 116.902 251.784 119.687 249.639 122.005C247.516 124.302 244.797 126.241 241.482 127.822C238.188 129.404 234.278 130.715 229.749 131.755L227.929 125.612C231.916 124.551 235.263 123.272 237.972 121.777C240.68 120.282 242.782 118.441 244.277 116.252C245.772 114.064 246.693 111.41 247.039 108.29L247.072 104.942C247.115 101.562 246.931 98.8 246.519 96.655C246.129 94.51 245.414 92.9283 244.374 91.91C243.356 90.8917 241.904 90.3825 240.019 90.3825C237.809 90.3825 236.087 91.1517 234.852 92.69C233.638 94.2067 233.032 96.525 233.032 99.645C233.032 102.635 233.638 104.769 234.852 106.047C236.065 107.304 237.614 107.932 239.499 107.932C241.254 107.932 242.814 107.51 244.179 106.665C245.544 105.798 246.877 104.585 248.177 103.025L248.079 108.452C246.584 110.186 244.959 111.572 243.204 112.612C241.471 113.631 239.434 114.14 237.094 114.14C234.689 114.14 232.523 113.555 230.594 112.385C228.666 111.193 227.138 109.525 226.012 107.38C224.885 105.235 224.322 102.689 224.322 99.7425C224.322 96.5142 225.015 93.73 226.402 91.39C227.81 89.05 229.695 87.2517 232.057 85.995C234.44 84.7167 237.105 84.0775 240.052 84.0775ZM293.879 95.81C293.879 97.9333 293.272 99.7642 292.059 101.302C290.867 102.841 289.058 104.292 286.631 105.657C289.621 107.066 291.875 108.799 293.391 110.857C294.908 112.916 295.666 115.245 295.666 117.845C295.666 120.207 295.027 122.384 293.749 124.377C292.492 126.371 290.651 127.974 288.224 129.187C285.797 130.379 282.818 130.975 279.286 130.975C275.776 130.975 272.83 130.39 270.446 129.22C268.063 128.028 266.265 126.457 265.051 124.507C263.838 122.557 263.231 120.412 263.231 118.072C263.231 115.429 264.001 113.154 265.539 111.247C267.099 109.341 269.179 107.813 271.779 106.665C269.439 105.322 267.727 103.87 266.644 102.31C265.561 100.75 265.019 98.7242 265.019 96.2325C265.019 94.2608 265.409 92.5275 266.189 91.0325C266.969 89.5158 268.031 88.2483 269.374 87.23C270.739 86.19 272.288 85.41 274.021 84.89C275.755 84.3483 277.575 84.0775 279.481 84.0775C281.475 84.0775 283.338 84.3375 285.071 84.8575C286.826 85.3558 288.365 86.1033 289.686 87.1C291.008 88.0967 292.037 89.3208 292.774 90.7725C293.511 92.2242 293.879 93.9033 293.879 95.81ZM286.989 117.845C286.989 116.155 286.61 114.812 285.851 113.815C285.115 112.797 284.021 111.93 282.569 111.215C281.117 110.5 279.319 109.763 277.174 109.005C276.177 109.568 275.278 110.251 274.476 111.052C273.696 111.854 273.068 112.797 272.591 113.88C272.136 114.963 271.909 116.231 271.909 117.682C271.909 119.784 272.537 121.474 273.794 122.752C275.072 124.031 276.957 124.67 279.449 124.67C281.984 124.67 283.869 124.009 285.104 122.687C286.361 121.344 286.989 119.73 286.989 117.845ZM273.241 96.265C273.241 97.565 273.534 98.6483 274.119 99.515C274.704 100.36 275.571 101.097 276.719 101.725C277.867 102.353 279.286 102.971 280.976 103.577C282.645 102.451 283.836 101.335 284.551 100.23C285.288 99.1033 285.656 97.7817 285.656 96.265C285.656 94.4233 285.126 92.9392 284.064 91.8125C283.024 90.6642 281.496 90.09 279.481 90.09C277.51 90.09 275.971 90.6208 274.866 91.6825C273.783 92.7442 273.241 94.2717 273.241 96.265Z" fill="white"/>
<path d="M187.785 202.067V195.242H215.215V202.067H187.785ZM240.052 173.077C243.583 173.077 246.519 173.836 248.859 175.352C251.221 176.869 252.987 178.982 254.157 181.69C255.348 184.398 255.944 187.562 255.944 191.18C255.944 195.557 255.424 199.381 254.384 202.652C253.366 205.902 251.784 208.687 249.639 211.005C247.516 213.302 244.797 215.241 241.482 216.822C238.188 218.404 234.278 219.715 229.749 220.755L227.929 214.612C231.916 213.551 235.263 212.272 237.972 210.777C240.68 209.282 242.782 207.441 244.277 205.252C245.772 203.064 246.693 200.41 247.039 197.29L247.072 193.942C247.115 190.562 246.931 187.8 246.519 185.655C246.129 183.51 245.414 181.928 244.374 180.91C243.356 179.892 241.904 179.382 240.019 179.382C237.809 179.382 236.087 180.152 234.852 181.69C233.638 183.207 233.032 185.525 233.032 188.645C233.032 191.635 233.638 193.769 234.852 195.047C236.065 196.304 237.614 196.932 239.499 196.932C241.254 196.932 242.814 196.51 244.179 195.665C245.544 194.798 246.877 193.585 248.177 192.025L248.079 197.452C246.584 199.186 244.959 200.572 243.204 201.612C241.471 202.631 239.434 203.14 237.094 203.14C234.689 203.14 232.523 202.555 230.594 201.385C228.666 200.193 227.138 198.525 226.012 196.38C224.885 194.235 224.322 191.689 224.322 188.742C224.322 185.514 225.015 182.73 226.402 180.39C227.81 178.05 229.695 176.252 232.057 174.995C234.44 173.717 237.105 173.077 240.052 173.077ZM279.449 173.077C284.627 173.077 288.538 175.125 291.181 179.22C293.825 183.293 295.146 189.035 295.146 196.445C295.146 203.877 293.825 209.662 291.181 213.8C288.538 217.917 284.627 219.975 279.449 219.975C274.249 219.975 270.327 217.917 267.684 213.8C265.062 209.662 263.751 203.877 263.751 196.445C263.751 189.035 265.062 183.293 267.684 179.22C270.327 175.125 274.249 173.077 279.449 173.077ZM279.449 179.447C277.001 179.447 275.148 180.758 273.891 183.38C272.656 185.98 272.039 190.335 272.039 196.445C272.039 199.825 272.158 202.631 272.396 204.862C272.656 207.072 273.079 208.817 273.664 210.095C274.249 211.373 275.007 212.283 275.939 212.825C276.892 213.345 278.062 213.605 279.449 213.605C281.096 213.605 282.461 213.052 283.544 211.947C284.649 210.821 285.472 209.001 286.014 206.487C286.556 203.952 286.826 200.605 286.826 196.445C286.826 192.025 286.588 188.58 286.111 186.11C285.656 183.64 284.887 181.917 283.804 180.942C282.742 179.946 281.291 179.447 279.449 179.447ZM285.071 180.91L287.281 186.24L274.476 212.5L271.844 208.145L285.071 180.91Z" fill="white"/>
<path d="M81.7498 124.2V179.25H154.65V214.5H81.7498V297H32.3998V89.1H169.05L163.95 124.2H81.7498Z" fill="#FF0000"/>
<line x1="173.545" y1="75.3908" x2="164.782" y2="137.778" stroke="white" stroke-width="5.61855"/>
<line x1="156.809" y1="165" x2="156.809" y2="228" stroke="white" stroke-width="5.61855"/>
</svg>
