<svg width="387" height="297" viewBox="0 0 387 297" fill="none" xmlns="http://www.w3.org/2000/svg">
<path d="M223.93 162.81C223.93 164.933 223.323 166.764 222.11 168.302C220.918 169.841 219.109 171.292 216.683 172.657C219.673 174.066 221.926 175.799 223.443 177.857C224.959 179.916 225.718 182.245 225.718 184.845C225.718 187.207 225.078 189.384 223.8 191.377C222.543 193.371 220.702 194.974 218.275 196.187C215.848 197.379 212.869 197.975 209.338 197.975C205.828 197.975 202.881 197.39 200.498 196.22C198.114 195.028 196.316 193.457 195.103 191.507C193.889 189.557 193.283 187.412 193.283 185.072C193.283 182.429 194.052 180.154 195.59 178.247C197.15 176.341 199.23 174.813 201.83 173.665C199.49 172.322 197.778 170.87 196.695 169.31C195.612 167.75 195.07 165.724 195.07 163.232C195.07 161.261 195.46 159.528 196.24 158.032C197.02 156.516 198.082 155.248 199.425 154.23C200.79 153.19 202.339 152.41 204.073 151.89C205.806 151.348 207.626 151.077 209.533 151.077C211.526 151.077 213.389 151.337 215.123 151.857C216.878 152.356 218.416 153.103 219.738 154.1C221.059 155.097 222.088 156.321 222.825 157.772C223.562 159.224 223.93 160.903 223.93 162.81ZM217.04 184.845C217.04 183.155 216.661 181.812 215.903 180.815C215.166 179.797 214.072 178.93 212.62 178.215C211.168 177.5 209.37 176.763 207.225 176.005C206.228 176.568 205.329 177.251 204.528 178.052C203.748 178.854 203.119 179.797 202.643 180.88C202.188 181.963 201.96 183.231 201.96 184.682C201.96 186.784 202.588 188.474 203.845 189.752C205.123 191.031 207.008 191.67 209.5 191.67C212.035 191.67 213.92 191.009 215.155 189.687C216.412 188.344 217.04 186.73 217.04 184.845ZM203.293 163.265C203.293 164.565 203.585 165.648 204.17 166.515C204.755 167.36 205.622 168.097 206.77 168.725C207.918 169.353 209.338 169.971 211.028 170.577C212.696 169.451 213.888 168.335 214.603 167.23C215.339 166.103 215.708 164.782 215.708 163.265C215.708 161.423 215.177 159.939 214.115 158.812C213.075 157.664 211.548 157.09 209.533 157.09C207.561 157.09 206.023 157.621 204.918 158.682C203.834 159.744 203.293 161.272 203.293 163.265ZM246.752 151.077C249.98 151.077 252.689 151.652 254.877 152.8C257.087 153.948 258.755 155.497 259.882 157.447C261.009 159.376 261.572 161.499 261.572 163.817C261.572 165.724 261.247 167.587 260.597 169.407C259.947 171.227 258.885 173.145 257.412 175.16C255.96 177.175 254.032 179.417 251.627 181.887C249.222 184.336 246.254 187.131 242.722 190.272H262.612L261.67 197H232.907V190.727C236.005 187.737 238.681 185.105 240.935 182.83C243.188 180.533 245.073 178.507 246.59 176.752C248.128 174.997 249.341 173.427 250.23 172.04C251.14 170.632 251.79 169.321 252.18 168.107C252.57 166.894 252.765 165.681 252.765 164.467C252.765 162.409 252.169 160.784 250.977 159.592C249.807 158.401 248.16 157.805 246.037 157.805C244.152 157.805 242.549 158.173 241.227 158.91C239.927 159.625 238.649 160.795 237.392 162.42L231.997 158.325C233.709 156.028 235.745 154.252 238.107 152.995C240.469 151.717 243.35 151.077 246.752 151.077ZM287.449 184.552C289.291 184.552 290.818 185.17 292.032 186.405C293.267 187.64 293.884 189.157 293.884 190.955C293.884 192.06 293.7 193.176 293.332 194.302C292.963 195.407 292.4 196.827 291.642 198.56L286.734 209.675H280.559L283.809 196.22C282.943 195.635 282.271 194.877 281.794 193.945C281.318 193.013 281.079 192.006 281.079 190.922C281.079 189.124 281.686 187.618 282.899 186.405C284.113 185.17 285.629 184.552 287.449 184.552ZM324.539 151.077C327.637 151.077 330.28 151.597 332.469 152.637C334.679 153.656 336.369 155.032 337.539 156.765C338.709 158.498 339.294 160.405 339.294 162.485C339.294 164.348 338.904 166.006 338.124 167.457C337.365 168.887 336.304 170.079 334.939 171.032C333.595 171.986 332.035 172.69 330.259 173.145C332.23 173.383 333.996 173.925 335.556 174.77C337.138 175.593 338.395 176.785 339.326 178.345C340.258 179.883 340.724 181.855 340.724 184.26C340.724 186.795 340.041 189.102 338.676 191.182C337.311 193.262 335.372 194.92 332.859 196.155C330.367 197.368 327.41 197.975 323.986 197.975C320.931 197.975 318.104 197.433 315.504 196.35C312.904 195.245 310.694 193.631 308.874 191.507L313.911 186.957C315.19 188.452 316.652 189.547 318.299 190.24C319.967 190.933 321.7 191.28 323.499 191.28C326.034 191.28 328.06 190.63 329.576 189.33C331.115 188.008 331.884 186.156 331.884 183.772C331.884 181.996 331.548 180.577 330.876 179.515C330.205 178.432 329.251 177.652 328.016 177.175C326.803 176.677 325.362 176.427 323.694 176.427H319.696L320.704 170.317H323.531C324.896 170.317 326.131 170.079 327.236 169.602C328.363 169.126 329.251 168.4 329.901 167.425C330.573 166.45 330.909 165.226 330.909 163.752C330.909 161.802 330.226 160.286 328.861 159.202C327.496 158.097 325.785 157.545 323.726 157.545C321.863 157.545 320.205 157.892 318.754 158.585C317.302 159.278 315.894 160.264 314.529 161.542L310.076 156.83C312.07 154.902 314.269 153.461 316.674 152.507C319.1 151.554 321.722 151.077 324.539 151.077ZM363.513 151.077C366.612 151.077 369.255 151.597 371.443 152.637C373.653 153.656 375.343 155.032 376.513 156.765C377.683 158.498 378.268 160.405 378.268 162.485C378.268 164.348 377.878 166.006 377.098 167.457C376.34 168.887 375.278 170.079 373.913 171.032C372.57 171.986 371.01 172.69 369.233 173.145C371.205 173.383 372.971 173.925 374.531 174.77C376.113 175.593 377.369 176.785 378.301 178.345C379.233 179.883 379.698 181.855 379.698 184.26C379.698 186.795 379.016 189.102 377.651 191.182C376.286 193.262 374.347 194.92 371.833 196.155C369.342 197.368 366.384 197.975 362.961 197.975C359.906 197.975 357.078 197.433 354.478 196.35C351.878 195.245 349.668 193.631 347.848 191.507L352.886 186.957C354.164 188.452 355.627 189.547 357.273 190.24C358.942 190.933 360.675 191.28 362.473 191.28C365.008 191.28 367.034 190.63 368.551 189.33C370.089 188.008 370.858 186.156 370.858 183.772C370.858 181.996 370.523 180.577 369.851 179.515C369.179 178.432 368.226 177.652 366.991 177.175C365.778 176.677 364.337 176.427 362.668 176.427H358.671L359.678 170.317H362.506C363.871 170.317 365.106 170.079 366.211 169.602C367.338 169.126 368.226 168.4 368.876 167.425C369.548 166.45 369.883 165.226 369.883 163.752C369.883 161.802 369.201 160.286 367.836 159.202C366.471 158.097 364.759 157.545 362.701 157.545C360.838 157.545 359.18 157.892 357.728 158.585C356.277 159.278 354.868 160.264 353.503 161.542L349.051 156.83C351.044 154.902 353.243 153.461 355.648 152.507C358.075 151.554 360.697 151.077 363.513 151.077Z" fill="white"/>
<path d="M22.5 297V265.2H43.5V169.2H22.5V137.7H79.65L88.35 173.55C94.05 159.85 101.3 149.65 110.1 142.95C119 136.25 129.85 132.9 142.65 132.9C148.05 132.9 152.85 133.35 157.05 134.25C161.25 135.05 165.2 136.2 168.9 137.7L154.5 176.85C151.6 176.05 148.7 175.45 145.8 175.05C142.9 174.65 139.7 174.45 136.2 174.45C125.8 174.45 116.65 178.7 108.75 187.2C100.95 195.7 95 206.5 90.9 219.6V265.2H122.4V297H22.5ZM130.35 204.3V157.8L137.4 137.7H168.9L160.05 204.3H130.35Z" fill="#FF0000"/>
<line x1="159.216" y1="222.001" x2="172.872" y2="120.625" stroke="white" stroke-width="5.61855"/>
</svg>
