<svg width="390" height="303" viewBox="0 0 390 303" fill="none" xmlns="http://www.w3.org/2000/svg">
<path d="M248.825 119.056L247.817 125.361H230.917V136.606C232.109 136.021 233.3 135.609 234.492 135.371C235.684 135.132 236.832 135.013 237.937 135.013C240.299 135.013 242.422 135.587 244.307 136.736C246.214 137.884 247.709 139.542 248.792 141.708C249.897 143.853 250.45 146.432 250.45 149.443C250.45 152.455 249.745 155.142 248.337 157.503C246.95 159.843 245 161.674 242.487 162.996C239.974 164.317 237.027 164.978 233.647 164.978C230.592 164.978 227.873 164.415 225.49 163.288C223.128 162.162 221.102 160.645 219.412 158.738L224.417 154.091C225.609 155.477 226.941 156.528 228.415 157.243C229.888 157.937 231.47 158.283 233.16 158.283C235.738 158.283 237.785 157.503 239.302 155.943C240.819 154.362 241.577 152.206 241.577 149.476C241.577 147.417 241.285 145.782 240.7 144.568C240.115 143.355 239.313 142.477 238.295 141.936C237.276 141.394 236.106 141.123 234.785 141.123C233.788 141.123 232.802 141.242 231.827 141.481C230.874 141.697 229.845 142.077 228.74 142.618H222.727V119.056H248.825ZM274.474 118.081C279.653 118.081 283.563 120.128 286.207 124.223C288.85 128.297 290.172 134.038 290.172 141.448C290.172 148.88 288.85 154.665 286.207 158.803C283.563 162.92 279.653 164.978 274.474 164.978C269.274 164.978 265.353 162.92 262.709 158.803C260.088 154.665 258.777 148.88 258.777 141.448C258.777 134.038 260.088 128.297 262.709 124.223C265.353 120.128 269.274 118.081 274.474 118.081ZM274.474 124.451C272.026 124.451 270.173 125.762 268.917 128.383C267.682 130.983 267.064 135.338 267.064 141.448C267.064 144.828 267.183 147.634 267.422 149.866C267.682 152.076 268.104 153.82 268.689 155.098C269.274 156.377 270.033 157.287 270.964 157.828C271.918 158.348 273.088 158.608 274.474 158.608C276.121 158.608 277.486 158.056 278.569 156.951C279.674 155.824 280.498 154.004 281.039 151.491C281.581 148.956 281.852 145.608 281.852 141.448C281.852 137.028 281.613 133.583 281.137 131.113C280.682 128.643 279.913 126.921 278.829 125.946C277.768 124.949 276.316 124.451 274.474 124.451ZM280.097 125.913L282.307 131.243L269.502 157.503L266.869 153.148L280.097 125.913Z" fill="white"/>
<path d="M182.784 239.07V232.245H210.214V239.07H182.784ZM248.799 211.055L247.791 217.36H230.891V228.605C232.083 228.02 233.275 227.609 234.466 227.37C235.658 227.132 236.806 227.013 237.911 227.013C240.273 227.013 242.396 227.587 244.281 228.735C246.188 229.884 247.683 231.541 248.766 233.708C249.871 235.853 250.424 238.431 250.424 241.443C250.424 244.455 249.72 247.141 248.311 249.503C246.925 251.843 244.975 253.674 242.461 254.995C239.948 256.317 237.001 256.978 233.621 256.978C230.566 256.978 227.847 256.415 225.464 255.288C223.102 254.161 221.076 252.645 219.386 250.738L224.391 246.09C225.583 247.477 226.915 248.528 228.389 249.243C229.862 249.936 231.444 250.283 233.134 250.283C235.712 250.283 237.76 249.503 239.276 247.943C240.793 246.361 241.551 244.205 241.551 241.475C241.551 239.417 241.259 237.781 240.674 236.568C240.089 235.355 239.287 234.477 238.269 233.935C237.25 233.394 236.08 233.123 234.759 233.123C233.762 233.123 232.776 233.242 231.801 233.48C230.848 233.697 229.819 234.076 228.714 234.618H222.701V211.055H248.799ZM272.726 210.08C275.954 210.08 278.663 210.655 280.851 211.803C283.061 212.951 284.729 214.5 285.856 216.45C286.983 218.379 287.546 220.502 287.546 222.82C287.546 224.727 287.221 226.59 286.571 228.41C285.921 230.23 284.859 232.148 283.386 234.163C281.934 236.178 280.006 238.42 277.601 240.89C275.196 243.339 272.228 246.134 268.696 249.275H288.586L287.643 256.003H258.881V249.73C261.979 246.74 264.655 244.108 266.908 241.833C269.162 239.536 271.047 237.51 272.563 235.755C274.102 234 275.315 232.43 276.203 231.043C277.113 229.635 277.763 228.324 278.153 227.11C278.543 225.897 278.738 224.684 278.738 223.47C278.738 221.412 278.143 219.787 276.951 218.595C275.781 217.404 274.134 216.808 272.011 216.808C270.126 216.808 268.523 217.176 267.201 217.913C265.901 218.628 264.623 219.798 263.366 221.423L257.971 217.328C259.683 215.031 261.719 213.255 264.081 211.998C266.443 210.72 269.324 210.08 272.726 210.08Z" fill="white"/>
<path d="M107.399 83.8529C122.299 83.8529 134.949 85.8529 145.349 89.8529C155.849 93.7529 165.449 99.3029 174.149 106.503L149.999 135.603C144.299 130.903 137.999 127.203 131.099 124.503C124.199 121.703 116.699 120.303 108.599 120.303C99.899 120.303 91.949 122.803 84.749 127.803C77.549 132.703 71.799 140.503 67.499 151.203C63.199 161.803 61.049 175.603 61.049 192.603C61.049 209.303 63.099 222.953 67.199 233.553C71.399 244.053 77.149 251.803 84.449 256.803C91.749 261.703 100.099 264.153 109.499 264.153C119.899 264.153 128.549 262.203 135.449 258.303C142.349 254.403 148.699 250.153 154.499 245.553L176.849 274.053C169.049 281.753 159.449 288.353 148.049 293.853C136.649 299.353 122.899 302.103 106.799 302.103C87.999 302.103 71.299 297.953 56.699 289.653C42.199 281.253 30.799 268.953 22.499 252.753C14.299 236.453 10.199 216.403 10.199 192.603C10.199 169.403 14.449 149.703 22.949 133.503C31.549 117.303 43.199 105.003 57.899 96.6029C72.599 88.1029 89.099 83.8529 107.399 83.8529Z" fill="#FF0000"/>
<line x1="142.847" y1="146.458" x2="183.343" y2="98.1971" stroke="white" stroke-width="5.61855"/>
<line x1="147.213" y1="235.273" x2="186" y2="284.918" stroke="white" stroke-width="5.61855"/>
</svg>
