<svg width="1167" height="255" viewBox="0 0 1167 255" fill="none" xmlns="http://www.w3.org/2000/svg">
<path d="M41.35 78.65H12.05L6 97H1.19209e-07L22.75 28.3H31.2L54 97H47.4L41.35 78.65ZM14.2 72.85H39.25L26.8 34.25L14.2 72.85ZM151.311 79.45H124.061L118.561 97H110.011L132.411 28.15H143.511L165.911 97H156.811L151.311 79.45ZM126.311 72.25H149.061L137.761 35.45L126.311 72.25ZM131.061 6.04999L149.511 16.95L146.961 21.45L126.361 13.25L131.061 6.04999ZM262.272 79.45H235.022L229.522 97H220.972L243.372 28.15H254.472L276.872 97H267.772L262.272 79.45ZM237.272 72.25H260.022L248.722 35.45L237.272 72.25ZM257.122 6.4L260.922 13.6L239.572 21.45L237.322 16.95L257.122 6.4ZM372.683 79.85H346.583L341.383 97H331.433L353.633 28.1H366.133L388.383 97H377.883L372.683 79.85ZM348.883 71.9H370.383L359.683 36.1L348.883 71.9ZM363.083 5.39999L376.633 16.55L372.633 21.15L359.883 13.05L347.233 21.15L343.133 16.55L356.783 5.39999H363.083ZM483.644 79.85H457.544L452.344 97H442.394L464.594 28.1H477.094L499.344 97H488.844L483.644 79.85ZM459.844 71.9H481.344L470.644 36.1L459.844 71.9ZM476.644 19.5C474.844 19.5 473.294 19.1 471.994 18.3C470.727 17.5 469.544 16.7 468.444 15.9C467.377 15.1 466.244 14.7 465.044 14.7C463.91 14.7 462.944 15.1 462.144 15.9C461.344 16.6667 460.544 17.8 459.744 19.3L453.994 16.4C455.16 13.9333 456.66 11.8333 458.494 10.1C460.327 8.33333 462.51 7.44999 465.044 7.44999C466.91 7.44999 468.477 7.84999 469.744 8.65C471.01 9.41666 472.16 10.2 473.194 11C474.26 11.8 475.41 12.2 476.644 12.2C477.644 12.2 478.544 11.85 479.344 11.15C480.177 10.4167 481.044 9.31666 481.944 7.84999L487.644 10.7C486.344 13.6 484.76 15.8 482.894 17.3C481.027 18.7667 478.944 19.5 476.644 19.5ZM593.905 80.4H569.255L564.455 97H552.655L574.605 28H589.005L611.005 97H598.705L593.905 80.4ZM571.655 71.45H591.455L581.605 37L571.655 71.45ZM571.005 20.45C569.138 20.45 567.571 19.85 566.305 18.65C565.071 17.4167 564.455 15.9 564.455 14.1C564.455 12.3 565.071 10.8 566.305 9.6C567.571 8.36666 569.138 7.75 571.005 7.75C572.838 7.75 574.371 8.36666 575.605 9.6C576.838 10.8 577.455 12.3 577.455 14.1C577.455 15.9 576.838 17.4167 575.605 18.65C574.371 19.85 572.838 20.45 571.005 20.45ZM592.555 20.45C590.755 20.45 589.221 19.85 587.955 18.65C586.721 17.4167 586.105 15.9 586.105 14.1C586.105 12.3 586.721 10.8 587.955 9.6C589.221 8.36666 590.755 7.75 592.555 7.75C594.421 7.75 595.971 8.36666 597.205 9.6C598.471 10.8 599.105 12.3 599.105 14.1C599.105 15.9 598.471 17.4167 597.205 18.65C595.971 19.85 594.421 20.45 592.555 20.45ZM704.866 80.4H680.216L675.416 97H663.616L685.566 28H699.966L721.966 97H709.666L704.866 80.4ZM682.616 71.45H702.416L692.566 37L682.616 71.45ZM692.716 0.949994C695.182 0.949994 697.316 1.46666 699.116 2.49999C700.949 3.49999 702.366 4.86666 703.366 6.6C704.399 8.3 704.916 10.2 704.916 12.3C704.916 14.3667 704.399 16.2667 703.366 18C702.366 19.7 700.949 21.0667 699.116 22.1C697.316 23.1 695.182 23.6 692.716 23.6C690.316 23.6 688.199 23.1 686.366 22.1C684.566 21.0667 683.149 19.7 682.116 18C681.116 16.2667 680.616 14.3667 680.616 12.3C680.616 10.2 681.116 8.3 682.116 6.6C683.149 4.86666 684.566 3.49999 686.366 2.49999C688.199 1.46666 690.316 0.949994 692.716 0.949994ZM692.716 6.9C691.216 6.9 689.999 7.36666 689.066 8.3C688.166 9.23333 687.716 10.5667 687.716 12.3C687.716 14.0333 688.166 15.3667 689.066 16.3C689.999 17.2333 691.216 17.7 692.716 17.7C694.282 17.7 695.516 17.2333 696.416 16.3C697.349 15.3667 697.816 14.0333 697.816 12.3C697.816 10.5667 697.349 9.23333 696.416 8.3C695.516 7.36666 694.282 6.9 692.716 6.9ZM814.927 81.15H792.177L787.877 97H773.727L795.377 27.85H812.177L833.777 97H819.227L814.927 81.15ZM794.627 70.9H812.377L803.527 38.1L794.627 70.9ZM818.327 18.3H789.077V8.9H818.327V18.3ZM925.888 81.15H903.138L898.838 97H884.688L906.338 27.85H923.138L944.738 97H930.188L925.888 81.15ZM905.588 70.9H923.338L914.488 38.1L905.588 70.9ZM914.588 21.65C911.321 21.65 908.521 21.0333 906.188 19.8C903.854 18.5333 902.021 16.8333 900.688 14.7C899.354 12.5333 898.538 10.1 898.238 7.4L905.938 5.95C906.604 8.01666 907.638 9.58333 909.038 10.65C910.438 11.6833 912.288 12.2 914.588 12.2C916.921 12.2 918.804 11.6833 920.238 10.65C921.671 9.58333 922.721 8.01666 923.388 5.95L931.088 7.4C930.788 10.1 929.954 12.5333 928.588 14.7C927.254 16.8333 925.404 18.5333 923.038 19.8C920.704 21.0333 917.888 21.65 914.588 21.65ZM1035.65 82.05H1015.35L1011.7 97H994.548L1015.75 27.7H1035.65L1056.85 97H1039.3L1035.65 82.05ZM1017.95 70.15H1032.95L1025.45 39.5L1017.95 70.15ZM1047.2 91.85L1048.95 97C1045.85 98.0667 1043.47 99.1833 1041.8 100.35C1040.17 101.55 1039.03 102.783 1038.4 104.05C1037.77 105.317 1037.45 106.633 1037.45 108C1037.45 109.633 1037.97 110.85 1039 111.65C1040.07 112.483 1041.48 112.9 1043.25 112.9C1044.32 112.9 1045.27 112.833 1046.1 112.7C1046.97 112.567 1047.82 112.4 1048.65 112.2L1047.45 121.55C1046.55 121.783 1045.63 121.967 1044.7 122.1C1043.77 122.267 1042.72 122.35 1041.55 122.35C1037.32 122.35 1033.73 121.283 1030.8 119.15C1027.9 117.017 1026.45 113.967 1026.45 110C1026.45 106.5 1027.37 103.617 1029.2 101.35C1031.03 99.1167 1033.52 97.2667 1036.65 95.8C1039.82 94.3333 1043.33 93.0167 1047.2 91.85ZM1137.96 81.75H1123.86L1121.11 97H1105.41L1122.86 27.7H1163.11L1161.41 38.8H1143.21L1146.51 56.35H1162.21V67.45H1148.51L1152.06 85.9H1166.91V97H1140.41L1137.96 81.75ZM1125.71 70.55H1136.26L1131.11 38.7L1125.71 70.55ZM43.6 217.65C43.6 219.783 43.9667 221.35 44.7 222.35C45.4333 223.317 46.5667 224.033 48.1 224.5L46.4 229.05C44.4 228.75 42.6167 228.017 41.05 226.85C39.4833 225.683 38.3833 223.9 37.75 221.5C35.9167 223.933 33.6167 225.8 30.85 227.1C28.1167 228.367 25.0167 229 21.55 229C16.35 229 12.2667 227.533 9.3 224.6C6.33333 221.667 4.85 217.75 4.85 212.85C4.85 207.517 6.91667 203.433 11.05 200.6C15.2167 197.767 21.2667 196.35 29.2 196.35H37.15V191.25C37.15 187.15 35.9667 184.283 33.6 182.65C31.2667 180.983 28.0667 180.15 24 180.15C22.2333 180.15 20.2333 180.35 18 180.75C15.7667 181.15 13.2833 181.833 10.55 182.8L8.75 177.7C11.9167 176.533 14.7833 175.717 17.35 175.25C19.95 174.783 22.4667 174.55 24.9 174.55C31.0667 174.55 35.7167 176.067 38.85 179.1C42.0167 182.1 43.6 186.083 43.6 191.05V217.65ZM22.75 224.05C25.6167 224.05 28.3 223.35 30.8 221.95C33.3 220.55 35.4167 218.6 37.15 216.1V201.1H28.45C22.2167 201.1 17.8667 202.2 15.4 204.4C12.9333 206.567 11.7 209.45 11.7 213.05C11.7 216.683 12.6 219.433 14.4 221.3C16.2 223.133 18.9833 224.05 22.75 224.05ZM155.711 216.5C155.711 218.6 156.061 220.133 156.761 221.1C157.461 222.067 158.544 222.783 160.011 223.25L157.961 229.15C155.694 228.85 153.711 228.133 152.011 227C150.311 225.833 149.078 224.083 148.311 221.75C146.411 224.183 144.044 226.033 141.211 227.3C138.378 228.533 135.244 229.15 131.811 229.15C126.544 229.15 122.394 227.667 119.361 224.7C116.328 221.733 114.811 217.8 114.811 212.9C114.811 207.467 116.928 203.3 121.161 200.4C125.394 197.5 131.511 196.05 139.511 196.05H147.261V191.65C147.261 187.85 146.144 185.167 143.911 183.6C141.711 182 138.644 181.2 134.711 181.2C132.978 181.2 130.944 181.417 128.611 181.85C126.278 182.25 123.744 182.933 121.011 183.9L118.811 177.55C122.044 176.35 125.078 175.5 127.911 175C130.744 174.5 133.444 174.25 136.011 174.25C142.578 174.25 147.494 175.783 150.761 178.85C154.061 181.883 155.711 186.017 155.711 191.25V216.5ZM133.961 222.75C136.561 222.75 139.044 222.1 141.411 220.8C143.778 219.467 145.728 217.633 147.261 215.3V201.75H139.661C133.861 201.75 129.761 202.75 127.361 204.75C124.994 206.75 123.811 209.433 123.811 212.8C123.811 216.067 124.644 218.55 126.311 220.25C128.011 221.917 130.561 222.75 133.961 222.75ZM145.811 165.8L125.611 156.5L130.111 149.35L148.561 161.15L145.811 165.8ZM266.672 216.5C266.672 218.6 267.022 220.133 267.722 221.1C268.422 222.067 269.505 222.783 270.972 223.25L268.922 229.15C266.655 228.85 264.672 228.133 262.972 227C261.272 225.833 260.039 224.083 259.272 221.75C257.372 224.183 255.005 226.033 252.172 227.3C249.339 228.533 246.205 229.15 242.772 229.15C237.505 229.15 233.355 227.667 230.322 224.7C227.289 221.733 225.772 217.8 225.772 212.9C225.772 207.467 227.889 203.3 232.122 200.4C236.355 197.5 242.472 196.05 250.472 196.05H258.222V191.65C258.222 187.85 257.105 185.167 254.872 183.6C252.672 182 249.605 181.2 245.672 181.2C243.939 181.2 241.905 181.417 239.572 181.85C237.239 182.25 234.705 182.933 231.972 183.9L229.772 177.55C233.005 176.35 236.039 175.5 238.872 175C241.705 174.5 244.405 174.25 246.972 174.25C253.539 174.25 258.455 175.783 261.722 178.85C265.022 181.883 266.672 186.017 266.672 191.25V216.5ZM244.922 222.75C247.522 222.75 250.005 222.1 252.372 220.8C254.739 219.467 256.689 217.633 258.222 215.3V201.75H250.622C244.822 201.75 240.722 202.75 238.322 204.75C235.955 206.75 234.772 209.433 234.772 212.8C234.772 216.067 235.605 218.55 237.272 220.25C238.972 221.917 241.522 222.75 244.922 222.75ZM256.472 148.3L260.372 155.5L239.472 164L236.872 159.5L256.472 148.3ZM378.283 215.9C378.283 218 378.616 219.533 379.283 220.5C379.949 221.433 380.999 222.133 382.433 222.6L380.183 229.2C377.783 228.9 375.699 228.183 373.933 227.05C372.166 225.917 370.849 224.183 369.983 221.85C368.083 224.283 365.683 226.133 362.783 227.4C359.883 228.633 356.733 229.25 353.333 229.25C348.033 229.25 343.849 227.75 340.783 224.75C337.716 221.75 336.183 217.8 336.183 212.9C336.183 207.4 338.316 203.183 342.583 200.25C346.883 197.317 353.049 195.85 361.083 195.85H368.733V191.85C368.733 188.217 367.649 185.633 365.483 184.1C363.349 182.567 360.366 181.8 356.533 181.8C354.799 181.8 352.733 182.017 350.333 182.45C347.933 182.883 345.383 183.567 342.683 184.5L340.233 177.5C343.499 176.267 346.616 175.383 349.583 174.85C352.583 174.317 355.383 174.05 357.983 174.05C364.783 174.05 369.866 175.6 373.233 178.7C376.599 181.767 378.283 185.983 378.283 191.35V215.9ZM356.033 222.05C358.499 222.05 360.866 221.417 363.133 220.15C365.399 218.883 367.266 217.117 368.733 214.85V202.1H361.733C356.166 202.1 352.216 203.05 349.883 204.95C347.549 206.817 346.383 209.383 346.383 212.65C346.383 215.717 347.183 218.05 348.783 219.65C350.383 221.25 352.799 222.05 356.033 222.05ZM346.633 165.4L342.333 160.85L355.983 148.65H362.283L375.833 160.85L371.733 165.4L359.183 156.3L346.633 165.4ZM489.244 215.9C489.244 218 489.577 219.533 490.244 220.5C490.91 221.433 491.96 222.133 493.394 222.6L491.144 229.2C488.744 228.9 486.66 228.183 484.894 227.05C483.127 225.917 481.81 224.183 480.944 221.85C479.044 224.283 476.644 226.133 473.744 227.4C470.844 228.633 467.694 229.25 464.294 229.25C458.994 229.25 454.81 227.75 451.744 224.75C448.677 221.75 447.144 217.8 447.144 212.9C447.144 207.4 449.277 203.183 453.544 200.25C457.844 197.317 464.01 195.85 472.044 195.85H479.694V191.85C479.694 188.217 478.61 185.633 476.444 184.1C474.31 182.567 471.327 181.8 467.494 181.8C465.76 181.8 463.694 182.017 461.294 182.45C458.894 182.883 456.344 183.567 453.644 184.5L451.194 177.5C454.46 176.267 457.577 175.383 460.544 174.85C463.544 174.317 466.344 174.05 468.944 174.05C475.744 174.05 480.827 175.6 484.194 178.7C487.56 181.767 489.244 185.983 489.244 191.35V215.9ZM466.994 222.05C469.46 222.05 471.827 221.417 474.094 220.15C476.36 218.883 478.227 217.117 479.694 214.85V202.1H472.694C467.127 202.1 463.177 203.05 460.844 204.95C458.51 206.817 457.344 209.383 457.344 212.65C457.344 215.717 458.144 218.05 459.744 219.65C461.344 221.25 463.76 222.05 466.994 222.05ZM475.844 162.55C474.044 162.55 472.494 162.15 471.194 161.35C469.927 160.55 468.744 159.75 467.644 158.95C466.577 158.15 465.444 157.75 464.244 157.75C463.11 157.75 462.144 158.15 461.344 158.95C460.544 159.717 459.744 160.85 458.944 162.35L453.194 159.45C454.36 156.983 455.86 154.883 457.694 153.15C459.527 151.383 461.71 150.5 464.244 150.5C466.11 150.5 467.677 150.9 468.944 151.7C470.21 152.467 471.36 153.25 472.394 154.05C473.46 154.85 474.61 155.25 475.844 155.25C476.844 155.25 477.744 154.9 478.544 154.2C479.377 153.467 480.244 152.367 481.144 150.9L486.844 153.75C485.544 156.65 483.96 158.85 482.094 160.35C480.227 161.817 478.144 162.55 475.844 162.55ZM601.055 215.05C601.055 217.117 601.371 218.633 602.005 219.6C602.638 220.533 603.655 221.233 605.055 221.7L602.555 229.3C599.955 229 597.721 228.283 595.855 227.15C593.988 226.017 592.571 224.3 591.605 222C589.671 224.433 587.221 226.267 584.255 227.5C581.288 228.733 578.121 229.35 574.755 229.35C569.421 229.35 565.188 227.85 562.055 224.85C558.955 221.817 557.405 217.85 557.405 212.95C557.405 207.383 559.571 203.1 563.905 200.1C568.238 197.1 574.438 195.6 582.505 195.6H590.055V192.15C590.055 188.75 589.021 186.3 586.955 184.8C584.921 183.3 582.038 182.55 578.305 182.55C576.571 182.55 574.471 182.783 572.005 183.25C569.538 183.683 566.955 184.367 564.255 185.3L561.505 177.4C564.805 176.167 568.038 175.267 571.205 174.7C574.371 174.1 577.305 173.8 580.005 173.8C587.071 173.8 592.338 175.367 595.805 178.5C599.305 181.633 601.055 185.967 601.055 191.5V215.05ZM578.155 221.1C580.421 221.1 582.638 220.5 584.805 219.3C586.971 218.1 588.721 216.417 590.055 214.25V202.6H583.855C578.588 202.6 574.821 203.483 572.555 205.25C570.288 206.983 569.155 209.383 569.155 212.45C569.155 215.25 569.905 217.4 571.405 218.9C572.938 220.367 575.188 221.1 578.155 221.1ZM570.255 163.6C568.388 163.6 566.821 163 565.555 161.8C564.321 160.567 563.705 159.05 563.705 157.25C563.705 155.45 564.321 153.95 565.555 152.75C566.821 151.517 568.388 150.9 570.255 150.9C572.088 150.9 573.621 151.517 574.855 152.75C576.088 153.95 576.705 155.45 576.705 157.25C576.705 159.05 576.088 160.567 574.855 161.8C573.621 163 572.088 163.6 570.255 163.6ZM591.805 163.6C590.005 163.6 588.471 163 587.205 161.8C585.971 160.567 585.355 159.05 585.355 157.25C585.355 155.45 585.971 153.95 587.205 152.75C588.471 151.517 590.005 150.9 591.805 150.9C593.671 150.9 595.221 151.517 596.455 152.75C597.721 153.95 598.355 155.45 598.355 157.25C598.355 159.05 597.721 160.567 596.455 161.8C595.221 163 593.671 163.6 591.805 163.6ZM712.016 215.05C712.016 217.117 712.332 218.633 712.966 219.6C713.599 220.533 714.616 221.233 716.016 221.7L713.516 229.3C710.916 229 708.682 228.283 706.816 227.15C704.949 226.017 703.532 224.3 702.566 222C700.632 224.433 698.182 226.267 695.216 227.5C692.249 228.733 689.082 229.35 685.716 229.35C680.382 229.35 676.149 227.85 673.016 224.85C669.916 221.817 668.366 217.85 668.366 212.95C668.366 207.383 670.532 203.1 674.866 200.1C679.199 197.1 685.399 195.6 693.466 195.6H701.016V192.15C701.016 188.75 699.982 186.3 697.916 184.8C695.882 183.3 692.999 182.55 689.266 182.55C687.532 182.55 685.432 182.783 682.966 183.25C680.499 183.683 677.916 184.367 675.216 185.3L672.466 177.4C675.766 176.167 678.999 175.267 682.166 174.7C685.332 174.1 688.266 173.8 690.966 173.8C698.032 173.8 703.299 175.367 706.766 178.5C710.266 181.633 712.016 185.967 712.016 191.5V215.05ZM689.116 221.1C691.382 221.1 693.599 220.5 695.766 219.3C697.932 218.1 699.682 216.417 701.016 214.25V202.6H694.816C689.549 202.6 685.782 203.483 683.516 205.25C681.249 206.983 680.116 209.383 680.116 212.45C680.116 215.25 680.866 217.4 682.366 218.9C683.899 220.367 686.149 221.1 689.116 221.1ZM691.966 144.1C694.432 144.1 696.566 144.617 698.366 145.65C700.199 146.65 701.616 148.017 702.616 149.75C703.649 151.45 704.166 153.35 704.166 155.45C704.166 157.517 703.649 159.417 702.616 161.15C701.616 162.85 700.199 164.217 698.366 165.25C696.566 166.25 694.432 166.75 691.966 166.75C689.566 166.75 687.449 166.25 685.616 165.25C683.816 164.217 682.399 162.85 681.366 161.15C680.366 159.417 679.866 157.517 679.866 155.45C679.866 153.35 680.366 151.45 681.366 149.75C682.399 148.017 683.816 146.65 685.616 145.65C687.449 144.617 689.566 144.1 691.966 144.1ZM691.966 150.05C690.466 150.05 689.249 150.517 688.316 151.45C687.416 152.383 686.966 153.717 686.966 155.45C686.966 157.183 687.416 158.517 688.316 159.45C689.249 160.383 690.466 160.85 691.966 160.85C693.532 160.85 694.766 160.383 695.666 159.45C696.599 158.517 697.066 157.183 697.066 155.45C697.066 153.717 696.599 152.383 695.666 151.45C694.766 150.517 693.532 150.05 691.966 150.05ZM824.027 214.05C824.027 216.083 824.327 217.567 824.927 218.5C825.527 219.4 826.493 220.083 827.827 220.55L824.977 229.4C822.143 229.1 819.727 228.4 817.727 227.3C815.76 226.167 814.243 224.483 813.177 222.25C811.177 224.683 808.643 226.5 805.577 227.7C802.543 228.9 799.36 229.5 796.027 229.5C790.627 229.5 786.343 227.967 783.177 224.9C780.01 221.833 778.427 217.85 778.427 212.95C778.427 207.317 780.627 202.983 785.027 199.95C789.46 196.883 795.727 195.35 803.827 195.35H811.227V192.5C811.227 189.367 810.26 187.1 808.327 185.7C806.393 184.267 803.61 183.55 799.977 183.55C798.277 183.55 796.143 183.783 793.577 184.25C791.043 184.683 788.427 185.367 785.727 186.3L782.577 177.25C785.943 175.983 789.327 175.05 792.727 174.45C796.16 173.85 799.277 173.55 802.077 173.55C809.51 173.55 815.027 175.133 818.627 178.3C822.227 181.433 824.027 185.883 824.027 191.65V214.05ZM800.327 219.95C802.327 219.95 804.343 219.383 806.377 218.25C808.443 217.117 810.06 215.533 811.227 213.5V203.2H806.027C801.127 203.2 797.577 203.983 795.377 205.55C793.21 207.117 792.127 209.333 792.127 212.2C792.127 214.667 792.827 216.583 794.227 217.95C795.627 219.283 797.66 219.95 800.327 219.95ZM817.577 161.6H788.327V152.2H817.577V161.6ZM934.988 214.05C934.988 216.083 935.288 217.567 935.888 218.5C936.488 219.4 937.454 220.083 938.788 220.55L935.938 229.4C933.104 229.1 930.688 228.4 928.688 227.3C926.721 226.167 925.204 224.483 924.138 222.25C922.138 224.683 919.604 226.5 916.538 227.7C913.504 228.9 910.321 229.5 906.988 229.5C901.588 229.5 897.304 227.967 894.138 224.9C890.971 221.833 889.388 217.85 889.388 212.95C889.388 207.317 891.588 202.983 895.988 199.95C900.421 196.883 906.688 195.35 914.788 195.35H922.188V192.5C922.188 189.367 921.221 187.1 919.288 185.7C917.354 184.267 914.571 183.55 910.938 183.55C909.238 183.55 907.104 183.783 904.538 184.25C902.004 184.683 899.388 185.367 896.688 186.3L893.538 177.25C896.904 175.983 900.288 175.05 903.688 174.45C907.121 173.85 910.238 173.55 913.038 173.55C920.471 173.55 925.988 175.133 929.588 178.3C933.188 181.433 934.988 185.883 934.988 191.65V214.05ZM911.288 219.95C913.288 219.95 915.304 219.383 917.338 218.25C919.404 217.117 921.021 215.533 922.188 213.5V203.2H916.988C912.088 203.2 908.538 203.983 906.338 205.55C904.171 207.117 903.088 209.333 903.088 212.2C903.088 214.667 903.788 216.583 905.188 217.95C906.588 219.283 908.621 219.95 911.288 219.95ZM913.838 166.2C910.404 166.2 907.521 165.417 905.188 163.85C902.854 162.25 901.054 160.217 899.788 157.75C898.521 155.25 897.754 152.7 897.488 150.1L905.188 148.65C905.821 151.083 906.838 153.067 908.238 154.6C909.671 156.1 911.538 156.85 913.838 156.85C916.204 156.85 918.104 156.1 919.538 154.6C920.971 153.067 922.004 151.083 922.638 148.65L930.338 150.1C930.071 152.7 929.288 155.25 927.988 157.75C926.721 160.217 924.904 162.25 922.538 163.85C920.204 165.417 917.304 166.2 913.838 166.2ZM1047.35 212.7C1047.35 214.7 1047.62 216.15 1048.15 217.05C1048.72 217.95 1049.62 218.633 1050.85 219.1L1047.6 229.5C1044.47 229.2 1041.82 228.517 1039.65 227.45C1037.52 226.35 1035.83 224.7 1034.6 222.5C1032.57 224.933 1029.97 226.75 1026.8 227.95C1023.63 229.117 1020.4 229.7 1017.1 229.7C1011.63 229.7 1007.27 228.15 1004 225.05C1000.77 221.917 999.148 217.9 999.148 213C999.148 207.233 1001.4 202.783 1005.9 199.65C1010.43 196.517 1016.8 194.95 1025 194.95H1032.15V192.95C1032.15 190.183 1031.25 188.133 1029.45 186.8C1027.68 185.467 1025.08 184.8 1021.65 184.8C1019.95 184.8 1017.77 185.05 1015.1 185.55C1012.43 186.017 1009.77 186.7 1007.1 187.6L1003.45 177.1C1006.88 175.8 1010.45 174.817 1014.15 174.15C1017.88 173.483 1021.22 173.15 1024.15 173.15C1032.05 173.15 1037.88 174.767 1041.65 178C1045.45 181.2 1047.35 185.833 1047.35 191.9V212.7ZM1022.55 218.4C1024.25 218.4 1026.03 217.9 1027.9 216.9C1029.77 215.867 1031.18 214.417 1032.15 212.55V203.95H1028.25C1023.85 203.95 1020.62 204.633 1018.55 206C1016.48 207.333 1015.45 209.3 1015.45 211.9C1015.45 213.933 1016.07 215.533 1017.3 216.7C1018.57 217.833 1020.32 218.4 1022.55 218.4ZM1045.85 224.35L1047.6 229.5C1044.5 230.567 1042.12 231.683 1040.45 232.85C1038.82 234.05 1037.68 235.283 1037.05 236.55C1036.42 237.817 1036.1 239.133 1036.1 240.5C1036.1 242.133 1036.62 243.35 1037.65 244.15C1038.72 244.983 1040.13 245.4 1041.9 245.4C1042.97 245.4 1043.92 245.333 1044.75 245.2C1045.62 245.067 1046.47 244.9 1047.3 244.7L1046.1 254.05C1045.2 254.283 1044.28 254.467 1043.35 254.6C1042.42 254.767 1041.37 254.85 1040.2 254.85C1035.97 254.85 1032.38 253.783 1029.45 251.65C1026.55 249.517 1025.1 246.467 1025.1 242.5C1025.1 239 1026.02 236.117 1027.85 233.85C1029.68 231.617 1032.17 229.767 1035.3 228.3C1038.47 226.833 1041.98 225.517 1045.85 224.35ZM1149.41 173.15C1155.68 173.15 1160.11 175.5 1162.71 180.2C1165.31 184.9 1166.61 191.633 1166.61 200.4C1166.61 202.133 1166.51 203.8 1166.31 205.4H1142.26C1142.73 210.133 1143.74 213.633 1145.31 215.9C1146.88 218.167 1149.08 219.3 1151.91 219.3C1153.51 219.3 1154.99 219.017 1156.36 218.45C1157.76 217.883 1159.18 217.083 1160.61 216.05L1166.56 224C1164.63 225.633 1162.39 226.983 1159.86 228.05C1157.33 229.15 1154.38 229.7 1151.01 229.7C1147.31 229.7 1144.14 228.967 1141.51 227.5C1138.91 226 1136.76 223.917 1135.06 221.25C1133.13 224.117 1131.13 226.25 1129.06 227.65C1127.03 229.017 1124.31 229.7 1120.91 229.7C1116.28 229.7 1112.63 228.117 1109.96 224.95C1107.33 221.783 1106.01 217.733 1106.01 212.8C1106.01 207.133 1107.66 202.8 1110.96 199.8C1114.29 196.8 1119.39 195.3 1126.26 195.3H1130.36V192.95C1130.36 189.55 1129.59 187.017 1128.06 185.35C1126.53 183.683 1124.33 182.85 1121.46 182.85C1119.86 182.85 1118.39 183.033 1117.06 183.4C1115.76 183.733 1114.11 184.383 1112.11 185.35L1108.56 176.7C1111.13 175.567 1113.51 174.7 1115.71 174.1C1117.94 173.467 1120.38 173.15 1123.01 173.15C1126.68 173.15 1129.58 173.8 1131.71 175.1C1133.88 176.367 1135.58 178.067 1136.81 180.2C1138.01 178.067 1139.66 176.367 1141.76 175.1C1143.86 173.8 1146.41 173.15 1149.41 173.15ZM1130.36 203.85H1128.21C1124.91 203.85 1122.58 204.583 1121.21 206.05C1119.88 207.483 1119.21 209.5 1119.21 212.1C1119.21 214.367 1119.59 216.15 1120.36 217.45C1121.16 218.75 1122.29 219.4 1123.76 219.4C1125.19 219.4 1126.46 218.883 1127.56 217.85C1128.69 216.783 1129.76 215.233 1130.76 213.2C1130.63 211.7 1130.53 210.15 1130.46 208.55C1130.39 206.917 1130.36 205.35 1130.36 203.85ZM1148.86 183.05C1146.79 183.05 1145.23 184.05 1144.16 186.05C1143.09 188.017 1142.46 191.617 1142.26 196.85H1154.71C1154.68 192.117 1154.28 188.633 1153.51 186.4C1152.74 184.167 1151.19 183.05 1148.86 183.05Z" fill="white"/>
</svg>
