<svg width="392" height="313" viewBox="0 0 392 313" fill="none" xmlns="http://www.w3.org/2000/svg">
<path d="M250.824 151.053L249.817 157.358H232.917V168.603C234.108 168.018 235.3 167.607 236.492 167.368C237.683 167.13 238.832 167.011 239.937 167.011C242.298 167.011 244.422 167.585 246.307 168.733C248.213 169.882 249.708 171.539 250.792 173.706C251.897 175.851 252.449 178.429 252.449 181.441C252.449 184.453 251.745 187.139 250.337 189.501C248.95 191.841 247 193.672 244.487 194.993C241.973 196.315 239.027 196.976 235.647 196.976C232.592 196.976 229.872 196.413 227.489 195.286C225.127 194.159 223.102 192.643 221.412 190.736L226.417 186.088C227.608 187.475 228.941 188.526 230.414 189.241C231.887 189.934 233.469 190.281 235.159 190.281C237.737 190.281 239.785 189.501 241.302 187.941C242.818 186.359 243.577 184.203 243.577 181.473C243.577 179.415 243.284 177.779 242.699 176.566C242.114 175.353 241.312 174.475 240.294 173.933C239.276 173.392 238.106 173.121 236.784 173.121C235.787 173.121 234.802 173.24 233.827 173.478C232.873 173.695 231.844 174.074 230.739 174.616H224.727V151.053H250.824ZM273.224 150.078L280.504 152.841L269.389 179.523H292.366V186.056H260.484V180.206L273.224 150.078ZM287.426 168.018V196.001H279.171L279.074 180.563L280.179 168.018H287.426Z" fill="#FF0000"/>
<path d="M184.784 271.068V264.243H212.214V271.068H184.784ZM250.799 243.053L249.791 249.358H232.891V260.603C234.083 260.018 235.274 259.607 236.466 259.368C237.658 259.13 238.806 259.011 239.911 259.011C242.273 259.011 244.396 259.585 246.281 260.733C248.188 261.882 249.683 263.539 250.766 265.706C251.871 267.851 252.424 270.429 252.424 273.441C252.424 276.453 251.719 279.139 250.311 281.501C248.924 283.841 246.974 285.672 244.461 286.993C241.948 288.315 239.001 288.976 235.621 288.976C232.566 288.976 229.847 288.413 227.464 287.286C225.102 286.159 223.076 284.643 221.386 282.736L226.391 278.088C227.583 279.475 228.915 280.526 230.389 281.241C231.862 281.934 233.444 282.281 235.134 282.281C237.712 282.281 239.759 281.501 241.276 279.941C242.793 278.359 243.551 276.203 243.551 273.473C243.551 271.415 243.259 269.779 242.674 268.566C242.089 267.353 241.287 266.475 240.269 265.933C239.25 265.392 238.08 265.121 236.759 265.121C235.762 265.121 234.776 265.24 233.801 265.478C232.848 265.695 231.819 266.074 230.714 266.616H224.701V243.053H250.799ZM274.726 242.078C277.954 242.078 280.662 242.653 282.851 243.801C285.061 244.949 286.729 246.498 287.856 248.448C288.982 250.377 289.546 252.5 289.546 254.818C289.546 256.725 289.221 258.588 288.571 260.408C287.921 262.228 286.859 264.146 285.386 266.161C283.934 268.176 282.006 270.418 279.601 272.888C277.196 275.337 274.227 278.132 270.696 281.273H290.586L289.643 288.001H260.881V281.728C263.979 278.738 266.655 276.106 268.908 273.831C271.162 271.534 273.047 269.508 274.563 267.753C276.102 265.998 277.315 264.428 278.203 263.041C279.113 261.633 279.763 260.322 280.153 259.108C280.543 257.895 280.738 256.682 280.738 255.468C280.738 253.41 280.142 251.785 278.951 250.593C277.781 249.402 276.134 248.806 274.011 248.806C272.126 248.806 270.522 249.174 269.201 249.911C267.901 250.626 266.622 251.796 265.366 253.421L259.971 249.326C261.682 247.029 263.719 245.253 266.081 243.996C268.442 242.718 271.324 242.078 274.726 242.078Z" fill="#FF0000"/>
<path d="M100.349 282.901C108.749 282.901 116.499 281.601 123.599 279.001C130.799 276.401 137.299 273.051 143.099 268.951L152.849 281.551C145.949 287.351 137.699 291.901 128.099 295.201C118.499 298.401 109.499 300.001 101.099 300.001C85.799 300.001 72.799 296.701 62.099 290.101C51.499 283.401 43.399 273.951 37.799 261.751C32.299 249.551 29.549 235.251 29.549 218.851C29.549 203.251 32.299 189.251 37.799 176.851C43.399 164.451 51.499 154.651 62.099 147.451C72.799 140.251 85.849 136.651 101.249 136.651C110.749 136.651 119.799 138.151 128.399 141.151C137.099 144.151 145.099 148.601 152.399 154.501L142.499 167.851C135.399 162.951 128.349 159.301 121.349 156.901C114.449 154.401 107.449 153.151 100.349 153.151C85.849 153.151 73.849 158.651 64.349 169.651C54.949 180.651 50.249 197.051 50.249 218.851C50.249 233.551 52.399 245.651 56.699 255.151C60.999 264.551 66.899 271.551 74.399 276.151C81.999 280.651 90.649 282.901 100.349 282.901Z" fill="white"/>
<line x1="131.213" y1="250.271" x2="169.999" y2="299.916" stroke="#FF0000" stroke-width="5.61855"/>
<line x1="131.726" y1="187.318" x2="168.757" y2="136.35" stroke="#FF0000" stroke-width="5.61855"/>
</svg>
