<svg width="298" height="313" viewBox="0 0 298 313" fill="none" xmlns="http://www.w3.org/2000/svg">
<path d="M186.293 19.0525V62.7H177.875V27.6975L168.288 33.645L164.615 27.6975L178.72 19.0525H186.293ZM195.035 57.4025V64H166.988V57.4025H195.035ZM215.355 64.8775L207.262 62.375L224.292 25.6825H204.077V19.0525H232.97V25.0325L215.355 64.8775ZM255.727 18.0775C258.955 18.0775 261.663 18.6517 263.852 19.8C266.062 20.9483 267.73 22.4975 268.857 24.4475C269.983 26.3758 270.547 28.4992 270.547 30.8175C270.547 32.7242 270.222 34.5875 269.572 36.4075C268.922 38.2275 267.86 40.145 266.387 42.16C264.935 44.175 263.007 46.4175 260.602 48.8875C258.197 51.3358 255.228 54.1308 251.697 57.2725H271.587L270.644 64H241.882V57.7275C244.98 54.7375 247.656 52.105 249.909 49.83C252.163 47.5333 254.048 45.5075 255.564 43.7525C257.103 41.9975 258.316 40.4267 259.204 39.04C260.114 37.6317 260.764 36.3208 261.154 35.1075C261.544 33.8942 261.739 32.6808 261.739 31.4675C261.739 29.4092 261.143 27.7842 259.952 26.5925C258.782 25.4008 257.135 24.805 255.012 24.805C253.127 24.805 251.523 25.1733 250.202 25.91C248.902 26.625 247.623 27.795 246.367 29.42L240.972 25.325C242.683 23.0283 244.72 21.2517 247.082 19.995C249.443 18.7167 252.325 18.0775 255.727 18.0775Z" fill="#FF0000"/>
<path d="M128.55 86.2L147.15 88.75V310H130.95L128.55 288.25C122.25 297.25 115.2 303.65 107.4 307.45C99.7 311.15 91.75 313 83.55 313C69.65 313 58.2 309.6 49.2 302.8C40.3 295.9 33.7 286.35 29.4 274.15C25.1 261.85 22.95 247.7 22.95 231.7C22.95 216 25.35 202 30.15 189.7C35.05 177.3 42.05 167.55 51.15 160.45C60.35 153.25 71.45 149.65 84.45 149.65C94.05 149.65 102.45 151.35 109.65 154.75C116.85 158.05 123.15 162.95 128.55 169.45V86.2ZM89.1 165.7C74.5 165.7 63.3 171.25 55.5 182.35C47.8 193.35 43.95 209.75 43.95 231.55C43.95 245.35 45.5 257.15 48.6 266.95C51.8 276.65 56.5 284.05 62.7 289.15C68.9 294.25 76.65 296.8 85.95 296.8C95.95 296.8 104.4 294 111.3 288.4C118.3 282.8 124.05 276.65 128.55 269.95V188.05C123.95 180.95 118.2 175.45 111.3 171.55C104.5 167.65 97.1 165.7 89.1 165.7Z" fill="white"/>
<line x1="178.115" y1="90.9558" x2="98.609" y2="79.7819" stroke="#FF0000" stroke-width="5.61855"/>
</svg>
