<svg width="357" height="297" viewBox="0 0 357 297" fill="none" xmlns="http://www.w3.org/2000/svg">
<path d="M123.75 73.201C131.35 73.201 138.3 73.901 144.6 75.301C150.9 76.701 157.05 78.701 163.05 81.301L156.3 96.451C151.4 94.151 146.1 92.451 140.4 91.351C134.7 90.151 128.75 89.551 122.55 89.551C111.05 89.551 102.3 91.851 96.3 96.451C90.3 101.051 87.3 107.951 87.3 117.151V152.401H141.45L139.5 168.301H87.3V297.001H68.7V168.301H29.7V152.401H68.7V118.351C68.7 108.851 71.2 100.751 76.2 94.051C81.3 87.251 88 82.101 96.3 78.601C104.7 75.001 113.85 73.201 123.75 73.201Z" fill="white"/>
<line x1="174.191" y1="61.1436" x2="148.566" y2="118.697" stroke="#FF0000" stroke-width="5.61855"/>
<line x1="146.466" y1="130.343" x2="138.788" y2="192.874" stroke="#FF0000" stroke-width="5.61855"/>
<path d="M188.785 89.0685V82.2435H216.215V89.0685H188.785ZM248.267 61.0535V104.701H239.85V69.6985L230.262 75.646L226.59 69.6985L240.695 61.0535H248.267ZM257.01 99.4035V106.001H228.962V99.4035H257.01ZM287.242 61.0535V104.701H278.824V69.6985L269.237 75.646L265.564 69.6985L279.669 61.0535H287.242ZM295.984 99.4035V106.001H267.937V99.4035H295.984ZM316.174 60.0785L323.454 62.841L312.339 89.5235H335.316V96.056H303.434V90.206L316.174 60.0785ZM330.376 78.0185V106.001H322.121L322.024 90.5635L323.129 78.0185H330.376Z" fill="#FF0000"/>
<path d="M188.785 178.068V171.243H216.215V178.068H188.785ZM241.052 149.078C244.584 149.078 247.52 149.837 249.86 151.353C252.221 152.87 253.987 154.983 255.157 157.691C256.349 160.399 256.945 163.563 256.945 167.181C256.945 171.558 256.425 175.382 255.385 178.653C254.366 181.903 252.785 184.688 250.64 187.006C248.516 189.303 245.797 191.242 242.482 192.823C239.189 194.405 235.278 195.716 230.75 196.756L228.93 190.613C232.916 189.552 236.264 188.273 238.972 186.778C241.68 185.283 243.782 183.442 245.277 181.253C246.772 179.065 247.693 176.411 248.04 173.291L248.072 169.943C248.115 166.563 247.931 163.801 247.52 161.656C247.13 159.511 246.415 157.929 245.375 156.911C244.356 155.893 242.905 155.383 241.02 155.383C238.81 155.383 237.087 156.153 235.852 157.691C234.639 159.208 234.032 161.526 234.032 164.646C234.032 167.636 234.639 169.77 235.852 171.048C237.065 172.305 238.615 172.933 240.5 172.933C242.255 172.933 243.815 172.511 245.18 171.666C246.545 170.799 247.877 169.586 249.177 168.026L249.08 173.453C247.585 175.187 245.96 176.573 244.205 177.613C242.471 178.632 240.435 179.141 238.095 179.141C235.69 179.141 233.523 178.556 231.595 177.386C229.666 176.194 228.139 174.526 227.012 172.381C225.885 170.236 225.322 167.69 225.322 164.743C225.322 161.515 226.015 158.731 227.402 156.391C228.81 154.051 230.695 152.253 233.057 150.996C235.44 149.718 238.105 149.078 241.052 149.078ZM277.329 195.878L269.237 193.376L286.267 156.683H266.052V150.053H294.944V156.033L277.329 195.878Z" fill="#FF0000"/>
</svg>
