<svg width="313" height="364" viewBox="0 0 313 364" fill="none" xmlns="http://www.w3.org/2000/svg">
<path d="M194.785 129.067V122.242H222.215V129.067H194.785ZM244.354 146.878L236.262 144.375L253.292 107.682H233.077V101.052H261.969V107.032L244.354 146.878ZM284.726 100.077C287.955 100.077 290.663 100.652 292.851 101.8C295.061 102.948 296.73 104.497 297.856 106.447C298.983 108.376 299.546 110.499 299.546 112.817C299.546 114.724 299.221 116.587 298.571 118.407C297.921 120.227 296.86 122.145 295.386 124.16C293.935 126.175 292.006 128.417 289.601 130.887C287.196 133.336 284.228 136.131 280.696 139.272H300.586L299.644 146H270.881V139.727C273.98 136.737 276.656 134.105 278.909 131.83C281.162 129.533 283.047 127.507 284.564 125.752C286.102 123.997 287.316 122.427 288.204 121.04C289.114 119.632 289.764 118.321 290.154 117.107C290.544 115.894 290.739 114.681 290.739 113.467C290.739 111.409 290.143 109.784 288.951 108.592C287.781 107.401 286.135 106.805 284.011 106.805C282.126 106.805 280.523 107.173 279.201 107.91C277.901 108.625 276.623 109.795 275.366 111.42L269.971 107.325C271.683 105.028 273.72 103.252 276.081 101.995C278.443 100.717 281.325 100.077 284.726 100.077Z" fill="white"/>
<path d="M162.45 112.2L173.55 147C167.95 149.2 161.4 150.8 153.9 151.8C146.4 152.8 137.65 153.3 127.65 153.3C137.65 157.6 145.25 162.95 150.45 169.35C155.75 175.65 158.4 183.95 158.4 194.25C158.4 204.55 155.65 213.75 150.15 221.85C144.65 229.85 136.85 236.15 126.75 240.75C116.65 245.35 104.7 247.65 90.8998 247.65C87.4998 247.65 84.2998 247.5 81.2998 247.2C78.2998 246.9 75.3498 246.45 72.4498 245.85C70.7498 246.75 69.4498 248.05 68.5498 249.75C67.6498 251.45 67.1998 253.2 67.1998 255C67.1998 257.5 68.1998 259.75 70.1998 261.75C72.2998 263.75 77.1498 264.75 84.7498 264.75H110.85C123.25 264.75 133.95 266.75 142.95 270.75C152.05 274.75 159.1 280.2 164.1 287.1C169.1 294 171.6 301.9 171.6 310.8C171.6 327.1 164.45 339.95 150.15 349.35C135.85 358.75 114.6 363.45 86.3998 363.45C65.9998 363.45 50.1998 361.35 38.9998 357.15C27.8998 353.05 20.1498 347.15 15.7498 339.45C11.4498 331.85 9.29976 322.8 9.29976 312.3H51.2998C51.2998 316.9 52.1998 320.65 53.9998 323.55C55.8998 326.55 59.4498 328.75 64.6498 330.15C69.9498 331.55 77.5998 332.25 87.5998 332.25C97.6998 332.25 105.4 331.45 110.7 329.85C116 328.25 119.6 326.05 121.5 323.25C123.5 320.55 124.5 317.5 124.5 314.1C124.5 309.4 122.65 305.6 118.95 302.7C115.25 299.8 109.4 298.35 101.4 298.35H76.0498C58.8498 298.35 46.3498 295.2 38.5498 288.9C30.7498 282.5 26.8498 275.05 26.8498 266.55C26.8498 260.65 28.3998 255.05 31.4998 249.75C34.6998 244.45 39.1498 240 44.8498 236.4C34.6498 231 27.3498 224.65 22.9498 217.35C18.5498 209.95 16.3498 201.1 16.3498 190.8C16.3498 178.8 19.3998 168.5 25.4998 159.9C31.5998 151.2 39.9998 144.5 50.6998 139.8C61.4998 135.1 73.7998 132.75 87.5998 132.75C99.4998 132.95 109.85 132.15 118.65 130.35C127.45 128.45 135.35 125.9 142.35 122.7C149.35 119.4 156.05 115.9 162.45 112.2ZM88.7998 163.5C81.2998 163.5 75.3498 165.9 70.9498 170.7C66.5498 175.4 64.3498 181.9 64.3498 190.2C64.3498 199 66.5998 205.75 71.0998 210.45C75.5998 215.15 81.4998 217.5 88.7998 217.5C96.6998 217.5 102.7 215.15 106.8 210.45C111 205.75 113.1 198.8 113.1 189.6C113.1 180.7 111.05 174.15 106.95 169.95C102.85 165.65 96.7998 163.5 88.7998 163.5Z" fill="#FF0000"/>
<line x1="160.672" y1="99.1319" x2="180.14" y2="159.048" stroke="white" stroke-width="5.61855"/>
</svg>
