<svg width="322" height="231" viewBox="0 0 322 231" fill="none" xmlns="http://www.w3.org/2000/svg">
<g filter="url(#filter0_f_11_61)">
<path d="M229.152 16C241.652 16 252.319 17.8333 261.152 21.5C269.986 25.0833 277.277 30.125 283.027 36.625C288.861 43.0417 293.402 50.625 296.652 59.375C299.902 68.125 302.194 77.625 303.527 87.875C304.861 98.125 305.527 108.75 305.527 119.75C305.527 140.75 304.527 158.333 302.527 172.5C300.527 186.583 296.777 197.167 291.277 204.25C285.861 211.417 278.027 215 267.777 215C262.777 215 258.402 213.875 254.652 211.625C250.986 209.375 247.944 206.458 245.527 202.875C243.194 199.375 241.402 195.583 240.152 191.5C238.986 187.333 238.319 183.417 238.152 179.75H237.152C235.486 183.75 233.194 187.583 230.277 191.25C227.361 194.917 223.652 197.917 219.152 200.25C214.652 202.583 209.152 203.75 202.652 203.75C193.319 203.75 185.819 201.25 180.152 196.25C174.486 191.333 170.361 184.542 167.777 175.875C165.194 167.208 163.902 157.417 163.902 146.5C163.902 125.25 168.236 109.042 176.902 97.875C185.569 86.625 198.111 81 214.527 81C220.694 81 226.777 81.75 232.777 83.25C238.861 84.6667 245.402 87.25 252.402 91V165.25C252.402 173.167 253.027 179.292 254.277 183.625C255.527 187.958 257.236 190.958 259.402 192.625C261.652 194.292 264.194 195.125 267.027 195.125C270.361 195.125 272.944 193.417 274.777 190C276.694 186.583 278.069 181.667 278.902 175.25C279.736 168.75 280.236 160.917 280.402 151.75C280.569 142.583 280.652 132.25 280.652 120.75C280.652 108.417 279.944 97.125 278.527 86.875C277.194 76.5417 274.652 67.625 270.902 60.125C267.236 52.625 261.986 46.8333 255.152 42.75C248.319 38.6667 239.444 36.625 228.527 36.625C226.194 36.625 222.777 36.75 218.277 37C213.777 37.1667 208.819 37.75 203.402 38.75C197.986 39.75 192.652 41.4167 187.402 43.75C182.236 46.0833 177.736 49.375 173.902 53.625C169.652 58.375 165.986 63.9167 162.902 70.25C159.819 76.5 157.152 82.5417 154.902 88.375C152.652 94.125 150.736 98.6667 149.152 102C146.236 107.917 142.902 113.5 139.152 118.75C135.402 124 130.944 128.292 125.777 131.625C120.527 134.958 114.194 136.625 106.777 136.625C100.861 136.625 95.7357 135.375 91.4023 132.875C86.9857 130.375 83.0273 127.458 79.5273 124.125C75.944 120.792 72.4857 117.875 69.1523 115.375C65.7357 112.875 62.069 111.625 58.1523 111.625C52.9857 111.625 48.569 113.583 44.9023 117.5C41.1523 121.333 37.6523 126.25 34.4023 132.25L16.6523 123.875C19.569 118.125 22.9023 112.625 26.6523 107.375C30.319 102.042 34.7773 97.6667 40.0273 94.25C45.2773 90.75 51.6107 89 59.0273 89C65.2773 89 70.6107 90.25 75.0273 92.75C79.444 95.25 83.4023 98.1667 86.9023 101.5C90.4023 104.833 93.7773 107.75 97.0273 110.25C100.277 112.75 103.819 114 107.652 114C112.652 114 117.069 112.125 120.902 108.375C124.652 104.542 128.152 99.5833 131.402 93.5C132.736 91 134.277 87.5417 136.027 83.125C137.777 78.7083 139.819 73.875 142.152 68.625C144.402 63.2917 146.986 58.0417 149.902 52.875C152.819 47.625 156.069 42.9583 159.652 38.875C164.486 33.375 170.152 29.0833 176.652 26C183.152 22.9167 189.777 20.6667 196.527 19.25C203.277 17.8333 209.527 16.9583 215.277 16.625C221.111 16.2083 225.736 16 229.152 16ZM228.402 164.25V103.25C226.152 102.083 223.986 101.25 221.902 100.75C219.819 100.25 217.486 100 214.902 100C205.319 100 198.777 103.75 195.277 111.25C191.777 118.667 190.027 130.417 190.027 146.5C190.027 154.5 190.527 161.333 191.527 167C192.527 172.667 194.277 177 196.777 180C199.277 183 202.652 184.5 206.902 184.5C211.986 184.5 215.944 183.333 218.777 181C221.611 178.667 223.736 175.917 225.152 172.75C226.569 169.5 227.652 166.667 228.402 164.25Z" fill="#FF0000"/>
</g>
<defs>
<filter id="filter0_f_11_61" x="0.652344" y="0" width="320.875" height="231" filterUnits="userSpaceOnUse" color-interpolation-filters="sRGB">
<feFlood flood-opacity="0" result="BackgroundImageFix"/>
<feBlend mode="normal" in="SourceGraphic" in2="BackgroundImageFix" result="shape"/>
<feGaussianBlur stdDeviation="8" result="effect1_foregroundBlur_11_61"/>
</filter>
</defs>
</svg>
