<svg width="315" height="423" viewBox="0 0 315 423" fill="none" xmlns="http://www.w3.org/2000/svg">
<path d="M163.785 404.067V397.242H191.215V404.067H163.785ZM216.052 375.077C219.584 375.077 222.52 375.836 224.86 377.352C227.221 378.869 228.987 380.982 230.157 383.69C231.349 386.398 231.945 389.562 231.945 393.18C231.945 397.557 231.425 401.381 230.385 404.652C229.366 407.902 227.785 410.687 225.64 413.005C223.516 415.302 220.797 417.241 217.482 418.822C214.189 420.404 210.278 421.715 205.75 422.755L203.93 416.612C207.916 415.551 211.264 414.272 213.972 412.777C216.68 411.282 218.782 409.441 220.277 407.252C221.772 405.064 222.693 402.41 223.04 399.29L223.072 395.942C223.115 392.562 222.931 389.8 222.52 387.655C222.13 385.51 221.415 383.928 220.375 382.91C219.356 381.892 217.905 381.382 216.02 381.382C213.81 381.382 212.087 382.152 210.852 383.69C209.639 385.207 209.032 387.525 209.032 390.645C209.032 393.635 209.639 395.769 210.852 397.047C212.065 398.304 213.615 398.932 215.5 398.932C217.255 398.932 218.815 398.51 220.18 397.665C221.545 396.798 222.877 395.585 224.177 394.025L224.08 399.452C222.585 401.186 220.96 402.572 219.205 403.612C217.471 404.631 215.435 405.14 213.095 405.14C210.69 405.14 208.523 404.555 206.595 403.385C204.666 402.193 203.139 400.525 202.012 398.38C200.885 396.235 200.322 393.689 200.322 390.742C200.322 387.514 201.015 384.73 202.402 382.39C203.81 380.05 205.695 378.252 208.057 376.995C210.44 375.717 213.105 375.077 216.052 375.077Z" fill="#FF0000"/>
<path d="M84 136.65C94 136.65 102.7 138.5 110.1 142.2C117.5 145.8 123.95 151.1 129.45 158.1L131.55 139.5H147.15V359.7L128.55 357.15V275.1C122.45 283.9 115.4 290.25 107.4 294.15C99.5 298.05 91.4 300 83.1 300C68.8 300 57.35 296.65 48.75 289.95C40.25 283.15 34.15 273.65 30.45 261.45C26.75 249.25 24.9 235 24.9 218.7C24.9 203 27.1 189 31.5 176.7C36 164.3 42.65 154.55 51.45 147.45C60.25 140.25 71.1 136.65 84 136.65ZM88.35 152.7C73.95 152.7 63.15 158.25 55.95 169.35C48.85 180.35 45.3 196.75 45.3 218.55C45.3 232.35 46.75 244.1 49.65 253.8C52.55 263.4 56.95 270.7 62.85 275.7C68.75 280.7 76.25 283.2 85.35 283.2C95.15 283.2 103.65 280.5 110.85 275.1C118.05 269.7 123.95 263.65 128.55 256.95V175.05C124.15 167.95 118.4 162.45 111.3 158.55C104.3 154.65 96.65 152.7 88.35 152.7Z" fill="white"/>
<path d="M100 355L173.406 366.626" stroke="#FF0000" stroke-width="5.61855"/>
</svg>
