<svg width="1232" height="976" viewBox="0 0 1232 976" fill="none" xmlns="http://www.w3.org/2000/svg">
<g filter="url(#filter0_f_3_4)">
<circle cx="616" cy="488" r="338" stroke="#FF0000" stroke-opacity="0.6" stroke-width="20"/>
<circle cx="615.5" cy="488.5" r="66" stroke="#FF0000" stroke-opacity="0.6" stroke-width="15"/>
<circle cx="616" cy="488" r="17.5" stroke="#FF0000" stroke-opacity="0.6" stroke-width="15"/>
<rect x="554.558" y="639.941" width="327.82" height="11.0377" rx="5.51885" transform="rotate(-70 554.558 639.941)" fill="#FF0000"/>
<rect x="555.198" y="639.643" width="326.82" height="10.0377" rx="5.01885" transform="rotate(-70 555.198 639.643)" stroke="#FF0000" stroke-opacity="0.6"/>
<rect x="460" y="540.5" width="327.82" height="11.0377" rx="5.51885" transform="rotate(-20.443 460 540.5)" fill="#FF0000"/>
<rect x="460.643" y="540.793" width="326.82" height="10.0377" rx="5.01885" transform="rotate(-20.443 460.643 540.793)" stroke="#FF0000" stroke-opacity="0.6"/>
<rect x="463.852" y="426.008" width="327.82" height="11.0377" rx="5.51885" transform="rotate(20.44 463.852 426.008)" fill="#FF0000"/>
<rect x="464.146" y="426.651" width="326.82" height="10.0377" rx="5.01885" transform="rotate(20.44 464.146 426.651)" stroke="#FF0000" stroke-opacity="0.6"/>
<rect x="564.93" y="331.892" width="327.82" height="11.0377" rx="5.51885" transform="rotate(70 564.93 331.892)" fill="#FF0000"/>
<rect x="564.631" y="332.532" width="326.82" height="10.0377" rx="5.01885" transform="rotate(70 564.631 332.532)" stroke="#FF0000" stroke-opacity="0.6"/>
</g>
<g filter="url(#filter1_f_3_4)">
<circle cx="24" cy="369" r="6" fill="#FF0000"/>
<circle cx="56" cy="369" r="6" fill="#FF0000"/>
<circle cx="24" cy="387" r="6" fill="#FF0000"/>
<circle cx="56" cy="387" r="6" fill="#FF0000"/>
<circle cx="24" cy="405" r="6" fill="#FF0000"/>
<circle cx="56" cy="405" r="6" fill="#FF0000"/>
<circle cx="24" cy="423" r="6" fill="#FF0000"/>
<circle cx="56" cy="423" r="6" fill="#FF0000"/>
<circle cx="24" cy="441" r="6" fill="#FF0000"/>
<circle cx="56" cy="441" r="6" fill="#FF0000"/>
<circle cx="24" cy="535" r="6" fill="#FF0000"/>
<circle cx="56" cy="535" r="6" fill="#FF0000"/>
<circle cx="24" cy="553" r="6" fill="#FF0000"/>
<circle cx="56" cy="553" r="6" fill="#FF0000"/>
<circle cx="24" cy="571" r="6" fill="#FF0000"/>
<circle cx="56" cy="571" r="6" fill="#FF0000"/>
<circle cx="24" cy="589" r="6" fill="#FF0000"/>
<circle cx="56" cy="589" r="6" fill="#FF0000"/>
<circle cx="24" cy="607" r="6" fill="#FF0000"/>
<circle cx="56" cy="607" r="6" fill="#FF0000"/>
<circle cx="24" cy="24" r="6" fill="#FF0000"/>
<circle cx="56" cy="24" r="6" fill="#FF0000"/>
<circle cx="24" cy="42" r="6" fill="#FF0000"/>
<circle cx="56" cy="42" r="6" fill="#FF0000"/>
<circle cx="24" cy="60" r="6" fill="#FF0000"/>
<circle cx="56" cy="60" r="6" fill="#FF0000"/>
<circle cx="24" cy="96" r="6" fill="#FF0000"/>
<circle cx="56" cy="96" r="6" fill="#FF0000"/>
<circle cx="24" cy="114" r="6" fill="#FF0000"/>
<circle cx="56" cy="114" r="6" fill="#FF0000"/>
<circle cx="24" cy="132" r="6" fill="#FF0000"/>
<circle cx="56" cy="132" r="6" fill="#FF0000"/>
<circle cx="24" cy="150" r="6" fill="#FF0000"/>
<circle cx="56" cy="150" r="6" fill="#FF0000"/>
<circle cx="24" cy="168" r="6" fill="#FF0000"/>
<circle cx="56" cy="168" r="6" fill="#FF0000"/>
<circle cx="24" cy="204" r="6" fill="#FF0000"/>
<circle cx="56" cy="204" r="6" fill="#FF0000"/>
<circle cx="24" cy="222" r="6" fill="#FF0000"/>
<circle cx="56" cy="222" r="6" fill="#FF0000"/>
<circle cx="24" cy="240" r="6" fill="#FF0000"/>
<circle cx="56" cy="240" r="6" fill="#FF0000"/>
<circle cx="24" cy="258" r="6" fill="#FF0000"/>
<circle cx="56" cy="258" r="6" fill="#FF0000"/>
<circle cx="24" cy="276" r="6" fill="#FF0000"/>
<circle cx="56" cy="276" r="6" fill="#FF0000"/>
<circle cx="24" cy="78" r="6" fill="#FF0000"/>
<circle cx="56" cy="78" r="6" fill="#FF0000"/>
<circle cx="56" cy="952" r="6" transform="rotate(-180 56 952)" fill="#FF0000"/>
<circle cx="24" cy="952" r="6" transform="rotate(-180 24 952)" fill="#FF0000"/>
<circle cx="56" cy="934" r="6" transform="rotate(-180 56 934)" fill="#FF0000"/>
<circle cx="24" cy="934" r="6" transform="rotate(-180 24 934)" fill="#FF0000"/>
<circle cx="56" cy="916" r="6" transform="rotate(-180 56 916)" fill="#FF0000"/>
<circle cx="24" cy="916" r="6" transform="rotate(-180 24 916)" fill="#FF0000"/>
<circle cx="56" cy="880" r="6" transform="rotate(-180 56 880)" fill="#FF0000"/>
<circle cx="24" cy="880" r="6" transform="rotate(-180 24 880)" fill="#FF0000"/>
<circle cx="56" cy="862" r="6" transform="rotate(-180 56 862)" fill="#FF0000"/>
<circle cx="24" cy="862" r="6" transform="rotate(-180 24 862)" fill="#FF0000"/>
<circle cx="56" cy="844" r="6" transform="rotate(-180 56 844)" fill="#FF0000"/>
<circle cx="24" cy="844" r="6" transform="rotate(-180 24 844)" fill="#FF0000"/>
<circle cx="56" cy="826" r="6" transform="rotate(-180 56 826)" fill="#FF0000"/>
<circle cx="24" cy="826" r="6" transform="rotate(-180 24 826)" fill="#FF0000"/>
<circle cx="56" cy="808" r="6" transform="rotate(-180 56 808)" fill="#FF0000"/>
<circle cx="24" cy="808" r="6" transform="rotate(-180 24 808)" fill="#FF0000"/>
<circle cx="56" cy="772" r="6" transform="rotate(-180 56 772)" fill="#FF0000"/>
<circle cx="24" cy="772" r="6" transform="rotate(-180 24 772)" fill="#FF0000"/>
<circle cx="56" cy="754" r="6" transform="rotate(-180 56 754)" fill="#FF0000"/>
<circle cx="24" cy="754" r="6" transform="rotate(-180 24 754)" fill="#FF0000"/>
<circle cx="56" cy="736" r="6" transform="rotate(-180 56 736)" fill="#FF0000"/>
<circle cx="24" cy="736" r="6" transform="rotate(-180 24 736)" fill="#FF0000"/>
<circle cx="56" cy="718" r="6" transform="rotate(-180 56 718)" fill="#FF0000"/>
<circle cx="24" cy="718" r="6" transform="rotate(-180 24 718)" fill="#FF0000"/>
<circle cx="56" cy="700" r="6" transform="rotate(-180 56 700)" fill="#FF0000"/>
<circle cx="24" cy="700" r="6" transform="rotate(-180 24 700)" fill="#FF0000"/>
<circle cx="56" cy="898" r="6" transform="rotate(-180 56 898)" fill="#FF0000"/>
<circle cx="24" cy="898" r="6" transform="rotate(-180 24 898)" fill="#FF0000"/>
</g>
<g filter="url(#filter2_f_3_4)">
<circle cx="1176" cy="369" r="6" fill="#FF0000"/>
<circle cx="1208" cy="369" r="6" fill="#FF0000"/>
<circle cx="1176" cy="387" r="6" fill="#FF0000"/>
<circle cx="1208" cy="387" r="6" fill="#FF0000"/>
<circle cx="1176" cy="405" r="6" fill="#FF0000"/>
<circle cx="1208" cy="405" r="6" fill="#FF0000"/>
<circle cx="1176" cy="423" r="6" fill="#FF0000"/>
<circle cx="1208" cy="423" r="6" fill="#FF0000"/>
<circle cx="1176" cy="441" r="6" fill="#FF0000"/>
<circle cx="1208" cy="441" r="6" fill="#FF0000"/>
<circle cx="1176" cy="535" r="6" fill="#FF0000"/>
<circle cx="1208" cy="535" r="6" fill="#FF0000"/>
<circle cx="1176" cy="553" r="6" fill="#FF0000"/>
<circle cx="1208" cy="553" r="6" fill="#FF0000"/>
<circle cx="1176" cy="571" r="6" fill="#FF0000"/>
<circle cx="1208" cy="571" r="6" fill="#FF0000"/>
<circle cx="1176" cy="589" r="6" fill="#FF0000"/>
<circle cx="1208" cy="589" r="6" fill="#FF0000"/>
<circle cx="1176" cy="607" r="6" fill="#FF0000"/>
<circle cx="1208" cy="607" r="6" fill="#FF0000"/>
<circle cx="1176" cy="24" r="6" fill="#FF0000"/>
<circle cx="1208" cy="24" r="6" fill="#FF0000"/>
<circle cx="1176" cy="42" r="6" fill="#FF0000"/>
<circle cx="1208" cy="42" r="6" fill="#FF0000"/>
<circle cx="1176" cy="60" r="6" fill="#FF0000"/>
<circle cx="1208" cy="60" r="6" fill="#FF0000"/>
<circle cx="1176" cy="96" r="6" fill="#FF0000"/>
<circle cx="1208" cy="96" r="6" fill="#FF0000"/>
<circle cx="1176" cy="114" r="6" fill="#FF0000"/>
<circle cx="1208" cy="114" r="6" fill="#FF0000"/>
<circle cx="1176" cy="132" r="6" fill="#FF0000"/>
<circle cx="1208" cy="132" r="6" fill="#FF0000"/>
<circle cx="1176" cy="150" r="6" fill="#FF0000"/>
<circle cx="1208" cy="150" r="6" fill="#FF0000"/>
<circle cx="1176" cy="168" r="6" fill="#FF0000"/>
<circle cx="1208" cy="168" r="6" fill="#FF0000"/>
<circle cx="1176" cy="204" r="6" fill="#FF0000"/>
<circle cx="1208" cy="204" r="6" fill="#FF0000"/>
<circle cx="1176" cy="222" r="6" fill="#FF0000"/>
<circle cx="1208" cy="222" r="6" fill="#FF0000"/>
<circle cx="1176" cy="240" r="6" fill="#FF0000"/>
<circle cx="1208" cy="240" r="6" fill="#FF0000"/>
<circle cx="1176" cy="258" r="6" fill="#FF0000"/>
<circle cx="1208" cy="258" r="6" fill="#FF0000"/>
<circle cx="1176" cy="276" r="6" fill="#FF0000"/>
<circle cx="1208" cy="276" r="6" fill="#FF0000"/>
<circle cx="1176" cy="78" r="6" fill="#FF0000"/>
<circle cx="1208" cy="78" r="6" fill="#FF0000"/>
<circle cx="1208" cy="952" r="6" transform="rotate(-180 1208 952)" fill="#FF0000"/>
<circle cx="1176" cy="952" r="6" transform="rotate(-180 1176 952)" fill="#FF0000"/>
<circle cx="1208" cy="934" r="6" transform="rotate(-180 1208 934)" fill="#FF0000"/>
<circle cx="1176" cy="934" r="6" transform="rotate(-180 1176 934)" fill="#FF0000"/>
<circle cx="1208" cy="916" r="6" transform="rotate(-180 1208 916)" fill="#FF0000"/>
<circle cx="1176" cy="916" r="6" transform="rotate(-180 1176 916)" fill="#FF0000"/>
<circle cx="1208" cy="880" r="6" transform="rotate(-180 1208 880)" fill="#FF0000"/>
<circle cx="1176" cy="880" r="6" transform="rotate(-180 1176 880)" fill="#FF0000"/>
<circle cx="1208" cy="862" r="6" transform="rotate(-180 1208 862)" fill="#FF0000"/>
<circle cx="1176" cy="862" r="6" transform="rotate(-180 1176 862)" fill="#FF0000"/>
<circle cx="1208" cy="844" r="6" transform="rotate(-180 1208 844)" fill="#FF0000"/>
<circle cx="1176" cy="844" r="6" transform="rotate(-180 1176 844)" fill="#FF0000"/>
<circle cx="1208" cy="826" r="6" transform="rotate(-180 1208 826)" fill="#FF0000"/>
<circle cx="1176" cy="826" r="6" transform="rotate(-180 1176 826)" fill="#FF0000"/>
<circle cx="1208" cy="808" r="6" transform="rotate(-180 1208 808)" fill="#FF0000"/>
<circle cx="1176" cy="808" r="6" transform="rotate(-180 1176 808)" fill="#FF0000"/>
<circle cx="1208" cy="772" r="6" transform="rotate(-180 1208 772)" fill="#FF0000"/>
<circle cx="1176" cy="772" r="6" transform="rotate(-180 1176 772)" fill="#FF0000"/>
<circle cx="1208" cy="754" r="6" transform="rotate(-180 1208 754)" fill="#FF0000"/>
<circle cx="1176" cy="754" r="6" transform="rotate(-180 1176 754)" fill="#FF0000"/>
<circle cx="1208" cy="736" r="6" transform="rotate(-180 1208 736)" fill="#FF0000"/>
<circle cx="1176" cy="736" r="6" transform="rotate(-180 1176 736)" fill="#FF0000"/>
<circle cx="1208" cy="718" r="6" transform="rotate(-180 1208 718)" fill="#FF0000"/>
<circle cx="1176" cy="718" r="6" transform="rotate(-180 1176 718)" fill="#FF0000"/>
<circle cx="1208" cy="700" r="6" transform="rotate(-180 1208 700)" fill="#FF0000"/>
<circle cx="1176" cy="700" r="6" transform="rotate(-180 1176 700)" fill="#FF0000"/>
<circle cx="1208" cy="898" r="6" transform="rotate(-180 1208 898)" fill="#FF0000"/>
<circle cx="1176" cy="898" r="6" transform="rotate(-180 1176 898)" fill="#FF0000"/>
</g>
<defs>
<filter id="filter0_f_3_4" x="245" y="117" width="742" height="742" filterUnits="userSpaceOnUse" color-interpolation-filters="sRGB">
<feFlood flood-opacity="0" result="BackgroundImageFix"/>
<feBlend mode="normal" in="SourceGraphic" in2="BackgroundImageFix" result="shape"/>
<feGaussianBlur stdDeviation="11.5" result="effect1_foregroundBlur_3_4"/>
</filter>
<filter id="filter1_f_3_4" x="0" y="0" width="80" height="976" filterUnits="userSpaceOnUse" color-interpolation-filters="sRGB">
<feFlood flood-opacity="0" result="BackgroundImageFix"/>
<feBlend mode="normal" in="SourceGraphic" in2="BackgroundImageFix" result="shape"/>
<feGaussianBlur stdDeviation="9" result="effect1_foregroundBlur_3_4"/>
</filter>
<filter id="filter2_f_3_4" x="1152" y="0" width="80" height="976" filterUnits="userSpaceOnUse" color-interpolation-filters="sRGB">
<feFlood flood-opacity="0" result="BackgroundImageFix"/>
<feBlend mode="normal" in="SourceGraphic" in2="BackgroundImageFix" result="shape"/>
<feGaussianBlur stdDeviation="9" result="effect1_foregroundBlur_3_4"/>
</filter>
</defs>
</svg>
